<?xml version="1.0" encoding="utf-8"?>
<!-- Generator: Adobe Illustrator 22.1.0, SVG Export Plug-In . SVG Version: 6.00 Build 0)  -->
<svg version="1.1" id="Capa_1" xmlns="http://www.w3.org/2000/svg" xmlns:xlink="http://www.w3.org/1999/xlink" x="0px" y="0px"
	 viewBox="0 0 512 512" style="enable-background:new 0 0 512 512;" xml:space="preserve">
<style type="text/css">
	.st0{fill:#FFFFFF;}
</style>
<g>
	<path class="st0" d="M184.7,220.4c-36.2,0-65.6,29.4-65.6,65.6v208.1h273.7V220.4H184.7z M184.7,240.2h188.4v234.3H138.9V286
		C138.9,260.7,159.4,240.2,184.7,240.2z"/>
	<path class="st0" d="M250.2,196.2c49.2,0,89.2-40,89.2-89.2c0-49.2-40-89.2-89.2-89.2c-49.2,0-89.2,40-89.2,89.2
		C161,156.2,201,196.2,250.2,196.2z M250.2,37.6c38.3,0,69.5,31.2,69.5,69.5c0,38.3-31.2,69.5-69.5,69.5s-69.5-31.2-69.5-69.5
		C180.7,68.7,211.9,37.6,250.2,37.6z"/>
</g>
</svg>
